<?xml version="1.0" encoding="UTF-8" standalone="no"?>
<svg
  width="800"
  height="800"
  viewBox="0 0 20 20"
  fill="#000000"
  version="1.1"
  id="svg2"
  xmlns="http://www.w3.org/2000/svg"
  xmlns:svg="http://www.w3.org/2000/svg">
  <defs
    id="defs2" />
  <g
    id="SVGRepo_iconCarrier">
    <path
      d="m 14.142583,13.706583 -3,-3 c -0.390935,-0.390271 -0.390935,-1.0237291 0,-1.4139998 l 3,-3 c 0.502743,-0.5074979 1.360405,-0.3371222 1.631,0.324 0.154818,0.3737776 0.06916,0.8040145 -0.217,1.09 l -1.293,1.293 h 4.586 c 1.332736,5.96e-4 1.332736,2.0005958 0,1.9999998 h -4.586 l 1.293,1.293 c 0.910323,0.942526 -0.471473,2.324322 -1.414,1.414 z m -8.251262,-0.01737 c -0.942526,0.910322 -2.3243216,-0.471474 -1.414,-1.414 l 1.293,-1.293 H 1.1843214 c -1.3339288,5.97e-4 -1.3339288,-1.999404 0,-2 H 5.770321 l -1.293,-1.293 c -0.3892816,-0.390955 -0.3892816,-1.023045 0,-1.4140003 0.3905,-0.3903819 1.0235,-0.3903819 1.414,0 l 3,3.0000003 c 0.392046,0.389809 0.392046,1.024191 0,1.414 z"
      fill="#b1cbd0"
      id="path1"
      style="fill:#b1cbd0;fill-opacity:1" />
    <path
      d="m 18.999583,18.499583 a 1.5,1.5 0 0 1 -1.5,1.5 H 2.4995832 a 1.5,1.5 0 0 1 -1.50000004,-1.5 v -4.5 l 2.00000004,2 v 2 H 16.999583 v -2 l 2,-2 z M 2.9995832,1.9995832 v 2 l -2.00000004,2 v -4.5 A 1.5,1.5 0 0 1 2.4995832,-4.1684485e-4 H 17.499583 a 1.5,1.5 0 0 1 1.5,1.50000004485 v 4.5 l -2,-2 v -2 z"
      fill="#b1cbd0"
      id="path2"
      style="fill:#b1cbd0;fill-opacity:1" />
  </g>
</svg>
