<?xml version="1.0" encoding="UTF-8" standalone="no"?>
<svg
   width="800"
   height="800"
   viewBox="0 0 24 24"
   fill="none"
   version="1.1"
   id="svg3"
   xmlns="http://www.w3.org/2000/svg"
   xmlns:svg="http://www.w3.org/2000/svg">
  <defs
     id="defs3" />
  <g
     id="SVGRepo_iconCarrier"
     transform="matrix(1.1761722,0,0,1.1761722,-2.1118304,-2.0917517)">
    <path
       d="m 17.5,3.99219 c 1.3807,0 2.5,1.11929 2.5,2.5 v 4.00001 c 0,0.5523 -0.4477,1 -1,1 -0.5523,0 -1,-0.4477 -1,-1 V 6.49219 c 0,-0.27614 -0.2239,-0.5 -0.5,-0.5 h -11 c -0.27614,0 -0.5,0.22386 -0.5,0.5 v 4.00001 c 0,0.5523 -0.44771,1 -1,1 -0.55229,0 -1,-0.4477 -1,-1 V 6.49219 c 0,-1.38071 1.11929,-2.5 2.5,-2.5 z"
       fill="#b1cbd0"
       id="path1" />
    <path
       d="m 18.1998,13.0364 -0.098,-0.0846 -0.0074,-0.0055 c -0.3917,-0.2906 -0.9471,-0.2586 -1.3023,0.0966 -0.3552,0.3552 -0.3872,0.9106 -0.0966,1.3023 l 0.0055,0.0074 0.0846,0.0981 0.8003,0.7993 h -3.1891 l -0.1083,0.0083 -0.0095,0.0015 c -0.4641,0.0719 -0.779,0.5107 -0.779,0.9901 0,0.4793 0.3147,0.9183 0.7788,0.9903 l 0.0095,0.0014 0.1083,0.0084 h 3.1899 l -0.8016,0.8017 -0.093,0.1095 -0.006,0.0084 c -0.2521,0.3515 -0.2489,0.8288 0.0096,1.1772 l 0.0055,0.0074 0.0913,0.1058 0.1165,0.0989 0.0083,0.006 c 0.3516,0.2521 0.8289,0.2489 1.1773,-0.0096 l 0.0074,-0.0055 0.098,-0.0845 2.361,-2.3585 0.0645,-0.0454 0.0068,-0.0056 C 20.8606,16.8697 21,16.5739 21,16.2509 c 0,-0.356 -0.1699,-0.6813 -0.4434,-0.8604 z"
       fill="#b1cbd0"
       id="path2" />
    <path
       d="m 7.27365,14.3555 -0.08469,0.0981 -0.80028,0.7993 h 3.17956 c 0.53076,-10e-5 0.90636,0.48 0.90636,0.9999 0,0.4793 -0.3147,0.9182 -0.77877,0.9903 L 9.6863,17.2445 9.57806,17.2529 H 6.38811 l 0.79443,0.7945 c 0.35516,0.3552 0.38721,0.9106 0.09661,1.3023 l -0.0055,0.0074 -0.08464,0.0981 -0.00647,0.0064 C 6.82736,19.8168 6.27192,19.8488 5.88025,19.5582 L 5.87284,19.5527 5.77485,19.4681 3.41844,17.1143 c -0.27371,-0.179 -0.44383,-0.5044 -0.44383,-0.8605 0,-0.356 0.1699,-0.6813 0.44343,-0.8604 l 2.35028,-2.3476 c 0.39054,-0.3905 1.02373,-0.3905 1.41422,0 0.35518,0.3552 0.38722,0.9106 0.09661,1.3023 z"
       fill="#b1cbd0"
       id="path3" />
  </g>
</svg>
